<svg width="220" height="93" viewBox="0 0 220 93" fill="none" xmlns="http://www.w3.org/2000/svg">
<rect x="0.533447" y="0.753334" width="218.933" height="91.5454" rx="45.7727" fill="#333333"/>
<rect x="36.8115" y="74.9579" width="51.9583" height="23.0926" rx="11.5463" transform="rotate(-90 36.8115 74.9579)" fill="#00B9FF"/>
<rect x="62.2134" y="74.9579" width="51.9583" height="14.4329" rx="7.21644" transform="rotate(-90 62.2134 74.9579)" fill="#FC83F5"/>
<rect x="78.9554" y="74.9579" width="51.9583" height="8.65972" rx="4.32986" transform="rotate(-90 78.9554 74.9579)" fill="#F7CF1D"/>
<rect x="89.9246" y="74.9579" width="51.9583" height="5.77315" rx="2.88657" transform="rotate(-90 89.9246 74.9579)" fill="white"/>
<path d="M111.545 43.5272C105.807 43.5272 102.053 39.5575 102.053 33.4584C102.053 27.3955 105.807 23.3896 111.545 23.3896C116.417 23.3896 119.954 26.0602 120.531 30.6435L115.767 30.8961C115.37 28.4421 113.782 27.1429 111.545 27.1429C108.549 27.1429 106.853 29.4887 106.853 33.4584C106.853 37.4643 108.549 39.774 111.545 39.774C113.782 39.774 115.406 38.4748 115.767 35.7681L120.531 35.9847C119.99 40.604 116.489 43.5272 111.545 43.5272ZM130.322 43.5272C124.584 43.5272 120.831 39.5575 120.831 33.4584C120.831 27.3594 124.584 23.3896 130.322 23.3896C136.024 23.3896 139.778 27.3594 139.778 33.4584C139.778 39.5575 136.024 43.5272 130.322 43.5272ZM130.322 39.774C133.282 39.774 134.978 37.4643 134.978 33.4584C134.978 29.4887 133.282 27.1429 130.322 27.1429C127.327 27.1429 125.631 29.4887 125.631 33.4584C125.631 37.4643 127.327 39.774 130.322 39.774ZM148.395 43.5272C143.487 43.5272 140.419 39.6296 140.419 33.4584C140.419 27.2872 143.559 23.3896 148.395 23.3896C151.101 23.3896 153.231 24.5806 154.277 26.5655V17.471H158.897V43.0942H154.494L154.385 40.2432C153.303 42.3002 151.065 43.5272 148.395 43.5272ZM149.802 39.774C152.653 39.774 154.277 37.5365 154.277 33.4584C154.277 29.3443 152.689 27.1429 149.802 27.1429C146.987 27.1429 145.219 29.5247 145.219 33.4584C145.219 37.32 147.023 39.774 149.802 39.774ZM170.132 43.5272C164.358 43.5272 160.677 39.5575 160.677 33.4584C160.677 27.3955 164.358 23.3896 170.024 23.3896C175.545 23.3896 179.154 27.2151 179.154 33.7111V34.7576H165.477C165.621 38.15 167.389 39.8462 170.168 39.8462C172.225 39.8462 173.597 38.8718 174.174 37.1756L178.902 37.4643C177.855 41.2176 174.571 43.5272 170.132 43.5272ZM165.477 31.654H174.391C174.174 28.5143 172.478 27.0346 170.024 27.0346C167.534 27.0346 165.837 28.6586 165.477 31.654ZM103.172 74.5075V49.8227H107.611L107.683 52.7098C108.802 50.5445 110.895 49.3896 113.458 49.3896C118.943 49.3896 121.65 53.9007 121.65 59.4584C121.65 65.0161 118.907 69.5272 113.421 69.5272C110.967 69.5272 108.838 68.3724 107.792 66.4597V74.5075H103.172ZM112.339 65.774C115.154 65.774 116.85 63.4282 116.85 59.4584C116.85 55.4887 115.154 53.1429 112.339 53.1429C109.524 53.1429 107.792 55.2721 107.792 59.4584C107.792 63.6448 109.488 65.774 112.339 65.774ZM123.43 69.0942V49.8227H127.761L127.869 53.5759C128.627 50.9775 130.106 49.8227 132.488 49.8227H134.257V53.7925H132.452C129.493 53.7925 128.049 55.0195 128.049 57.9788V69.0942H123.43ZM143.284 69.5272C137.51 69.5272 133.829 65.5575 133.829 59.4584C133.829 53.3955 137.51 49.3896 143.176 49.3896C148.697 49.3896 152.306 53.2151 152.306 59.7111V60.7576H138.628C138.773 64.15 140.541 65.8462 143.32 65.8462C145.377 65.8462 146.748 64.8718 147.326 63.1756L152.053 63.4643C151.007 67.2176 147.723 69.5272 143.284 69.5272ZM138.628 57.654H147.542C147.326 54.5143 145.63 53.0346 143.176 53.0346C140.685 53.0346 138.989 54.6586 138.628 57.654ZM161.944 69.5272C156.061 69.5272 153.282 66.8206 152.994 63.0312L157.721 62.8147C158.046 64.8357 159.201 65.9905 161.98 65.9905C164.109 65.9905 165.3 65.3409 165.3 63.8252C165.3 62.526 164.65 61.9486 161.222 61.3351C155.376 60.3246 153.643 58.7367 153.643 55.4526C153.643 51.8798 156.458 49.3896 161.799 49.3896C167.357 49.3896 169.811 52.3128 170.136 55.8856L165.444 56.1022C165.336 54.2977 164.253 52.9263 161.727 52.9263C159.526 52.9263 158.407 53.9007 158.407 55.3082C158.407 56.86 159.309 57.4735 162.196 57.9427C168.151 58.8449 170.1 60.5411 170.1 63.753C170.1 67.4702 166.888 69.5272 161.944 69.5272ZM179.735 69.5272C173.852 69.5272 171.073 66.8206 170.784 63.0312L175.512 62.8147C175.837 64.8357 176.992 65.9905 179.771 65.9905C181.9 65.9905 183.091 65.3409 183.091 63.8252C183.091 62.526 182.441 61.9486 179.013 61.3351C173.166 60.3246 171.434 58.7367 171.434 55.4526C171.434 51.8798 174.249 49.3896 179.59 49.3896C185.148 49.3896 187.602 52.3128 187.927 55.8856L183.235 56.1022C183.127 54.2977 182.044 52.9263 179.518 52.9263C177.317 52.9263 176.198 53.9007 176.198 55.3082C176.198 56.86 177.1 57.4735 179.987 57.9427C185.942 58.8449 187.891 60.5411 187.891 63.753C187.891 67.4702 184.679 69.5272 179.735 69.5272Z" fill="white"/>
</svg>
