<svg width="50" height="51" viewBox="0 0 50 51" fill="none" xmlns="http://www.w3.org/2000/svg">
<path d="M50 25.0493C46.548 21.5973 42.03 19.8774 37.5 19.8774C40.6977 16.6797 42.672 12.2586 42.672 7.37735C37.7907 7.37735 33.3697 9.35167 30.172 12.5493C30.172 8.03142 28.452 3.50138 25 0.0493469C21.548 3.50138 19.828 8.01931 19.828 12.5493C16.6303 9.35167 12.2093 7.37735 7.328 7.37735C7.328 12.2586 9.30233 16.6797 12.5 19.8774C7.98207 19.8774 3.45203 21.5973 0 25.0493C3.45203 28.5014 7.96996 30.2213 12.5 30.2213C9.30233 33.419 7.328 37.84 7.328 42.7213C12.2093 42.7213 16.6303 40.747 19.828 37.5494C19.828 42.0794 21.548 46.5973 25 50.0493C28.452 46.5973 30.172 42.0794 30.172 37.5494C33.3697 40.747 37.7907 42.7213 42.672 42.7213C42.672 37.84 40.6977 33.419 37.5 30.2213C42.03 30.2335 46.548 28.5014 50 25.0493Z" fill="black"/>
</svg>
